<svg xmlns="http://www.w3.org/2000/svg" xmlns:xlink="http://www.w3.org/1999/xlink" xmlns:lucid="lucid" width="601" height="122"><g transform="translate(-362 -189)" lucid:page-tab-id="0_0"><path d="M373.33 206c0-3.3 2.7-6 6-6h568c3.32 0 6 2.7 6 6v88c0 3.3-2.68 6-6 6h-568c-3.3 0-6-2.7-6-6z" fill="#1c5270"/><use xlink:href="#a" transform="matrix(1,0,0,1,378.33333333333326,205) translate(29.439999999999998 64.5975)"/><use xlink:href="#b" transform="matrix(1,0,0,1,378.33333333333326,205) translate(326.16 64.5975)"/><defs><path fill="#fff" d="M244-678c4-22 40-15 64-12 15 5 11 24 6 38-48 142-86 300-118 453-24 14-79 9-115 5-4-17-20-24-35-30 12-162 53-321 84-466 11-19 47-6 73-10 19-3 26 13 21 34 4 13 22-3 20-12zM31-139c5-42 67-20 102-25 13 2 16 16 32 15 24-3 19 27 15 37-18 49 7 127-76 112-17 1-36-3-40-15 3-8-7-19-16-11-5 9-9 24-24 18-12-5-4-22-4-33 0-32 7-67 11-98" id="c"/><path fill="#fff" d="M52-110c-70-110-23-288 35-374 73-108 163-208 332-214 18 9 49-4 54 21-3 48-36 71-24 117-3 17-5 37-27 37-81 0-121 59-162 106-81 42-118 236 3 264 12 2 25 6 40 4 22-2 60-10 48 24l2-2c-7 15 5 23 3 32-5 5-9 34-26 29-15 3-14 17 0 21 12 36-21 45-56 45-91 0-163-29-206-85-4-9-11-17-16-25zm393-469l1 2" id="d"/><path fill="#fff" d="M278-21c111-56 187-157 209-295 24-148-76-277-236-234-10 3-21 13-15 27 0 22-22-4-32-1-49 17-89 52-118 90-9 7-5 21-8 32-67 86-91 288 4 367C126 2 223 8 278-19c0 1 0 1-1 1 1 0 1-1 1-3zm-12-465c-4 1-12 6-16 4-11-17 34-20 16-4zm-31 350c-102 40-108-112-63-172 26-34 50-68 96-81 17-5 6-21 9-33 93 14 59 159 23 216-16 26-34 58-65 70" id="e"/><path fill="#fff" d="M347-450c16 36-1 103 21 136 6 2 10 0 12-5 31-64 60-129 93-191 15-12 25-27 35-43 36-17 75 0 70 42 0 3 1 5 4 5 16-7-6-44 18-43-1-1-2-2-2-1 11 5 10 22 13 36 29 154 35 323 38 495 1 13-22 20-27 5-1-10-16-14-18-2-5 28-38 10-63 12-14 1-21-11-21-22 0-77-15-150-34-216-2-3-5-4-9-4-30 51-48 111-73 166-6 14-22 19-23 36-3 34-43 28-79 26-6-3-15-6-16-14-17-75-31-153-58-218-11-2-12 16-15 20-29 67-55 137-79 209-11 14-63 18-61-9C60-57 51-7 39-12-1-4 22-49 28-68c50-169 111-328 185-475 7-14 43-18 50-1 7 18 16-6 18-13 14-7 54 0 47 16 6 27 13 61 19 91zm54 374v1-1zM46-14c-2 0 0-1 0-1v1" id="f"/><path fill="#fff" d="M201-174c109-25 199-91 219-202 16-87-31-138-90-166-50-24-142-12-213-18-35-3-91 2-59 52 3 15-16 14-15 31-8 27-10 61 37 53 31-5 6 26-8 18 1 6-8 2-1 1-3-1-2-1-2 2-5 2-8 6-10 9-21 54-7 126-25 182-15 48-10 112-18 167 2 17-7 31 4 43l-1-1c13 7 17-12 25 0 30 15 18-29 34-33 5 15 8 54 48 30 13-68 26-141 40-207 0-8 12-14 16-3 3 19 29 0 38 10-8 11-40 16-19 32zm-10-139c5-29 18-59 22-88 3-17 15-31 35-20 48 5 43 78 10 100-14 14-39 31-58 31-12 0-15-14-9-23zm-20-77c4-11 1-36 19-28 1 14-7 18-9 29-1 5-9 6-10-1zM67-402v1-1" id="g"/><path fill="#fff" d="M405-388c11-180-187-167-351-148-8 18-4 41-4 65 0 11 25 15 7 23-6 5-13 4-15 11-11 32 31 26 48 25 14 10-7 18-20 18-25 22-18 76-28 112-8 14 6 26 0 41-7 50-20 104-20 155C22-60 1-10 34-6c24 14 43-5 45-28 17-3-1 45 37 25 2 1-1-2 1-2 2-12 6-27 7-41 23-43 20-104 39-151 4-1 6-1 7 1 39 69 73 141 108 214 5 4 23 4 22-5 4-13 20 0 25 2 19-6 49 0 55-19-18-78-47-147-70-220 3-4 3-8 6-11 42-30 85-84 89-147zm-221 90c9-37 20-72 29-109 5-7 9-6 19-5 49 7 46 74 12 98-16 11-29 23-51 27-2-2-13-5-9-11zm-9-109c23-7-13 58-7 11 0-5 2-8 7-11" id="h"/><path fill="#fff" d="M272-92c75-13 3 98 64 90 2 1-1 2 0 2 13-10 31-5 48-3 11 2 12-18 22-12 0 10 22 18 23 4 16-177 17-362 2-532-3-34-44-2-60-16-12-1-26-2-34 7-10 11-24-14-35 2C193-384 95-207 14-18c2 18 25 18 36 7 9-4 12 7 19 7 15-3 28-3 42 0 39-15 24-91 91-78 30 6 46-6 70-10zm28-147c-3 14 12 48-9 51-17-2-49 2-61-4 14-37 39-66 56-101 19-12 8 44 14 54zm-10 89c-30-2 4-24 15-8 0 9-7 8-15 8" id="i"/><g id="a"><use transform="matrix(0.08,0,0,0.08,0,0)" xlink:href="#c"/><use transform="matrix(0.08,0,0,0.08,26.88,0)" xlink:href="#d"/><use transform="matrix(0.08,0,0,0.08,65.92,0)" xlink:href="#e"/><use transform="matrix(0.08,0,0,0.08,106.24000000000001,0)" xlink:href="#f"/><use transform="matrix(0.08,0,0,0.08,159.44,0)" xlink:href="#g"/><use transform="matrix(0.08,0,0,0.08,194.56,0)" xlink:href="#h"/><use transform="matrix(0.08,0,0,0.08,228.24,0)" xlink:href="#i"/></g><path fill="#fff" d="M90-27C76-19 72 5 42-4-7 5 24-64 26-96c11-35 3-77 9-112 17-108 36-212 55-316-1-17 19-39 38-24 0 13-6 43 10 21 8-11 12-42 32-29 9 14 22-2 32-3 17-1 52-7 39 21-5 20-18 41-9 64-7 52-28 100-38 151 1 19 32 9 50 11 21 2 44 3 52-11 15-73 29-147 51-215 8-24 56-8 76-20 28-1 9 24 17 34 14-2 12-29 27-32 20-6 37 7 25 26-17 58-31 120-50 178-34 104-54 233-75 343-1 7-11 10-16 8-5-19-35 11-57-4-12 2-51 14-47-16 7-61 17-122 26-181-2-10-11-9-17-9-21-6-59 8-68-11-1-14 22-9 19-21-49-13-37 49-50 83-8 47-17 87-24 135-2 13-9 20-23 20S99-23 90-27" id="j"/><path fill="#fff" d="M131-333h72l11 492h-94zm83-195v97h-94v-97h94" id="k"/><g id="b"><use transform="matrix(0.08,0,0,0.08,0,0)" xlink:href="#i"/><use transform="matrix(0.08,0,0,0.08,36.56,0)" xlink:href="#j"/><use transform="matrix(0.08,0,0,0.08,77.36000000000001,0)" xlink:href="#e"/><use transform="matrix(0.08,0,0,0.08,117.68,0)" xlink:href="#h"/><use transform="matrix(0.08,0,0,0.08,151.36,0)" xlink:href="#i"/><use transform="matrix(0.08,0,0,0.08,187.92000000000002,0)" xlink:href="#k"/></g></defs></g></svg>