<svg xmlns="http://www.w3.org/2000/svg" xmlns:xlink="http://www.w3.org/1999/xlink" xmlns:lucid="lucid" width="675.55" height="157"><g transform="translate(-297.7822222222228 -315)" lucid:page-tab-id="0_0"><path d="M320 340h633.33v104.67H320z" fill="none"/><use xlink:href="#a" transform="matrix(1,0,0,1,320,340) translate(-0.21777777777720075 86.66666666666647)"/><defs><path fill="#ef8d22" d="M462-408l261-312h145V0H735v-528L462-203 188-528V0H56v-720h144" id="b"/><path fill="#333" d="M512-580c72 0 130 58 130 130V0H182C110 0 52-58 52-130v-214h482v-106c0-12-10-22-22-22H52v-108h460zm22 472v-128H160v106c0 12 10 22 22 22h352" id="c"/><path fill="#333" d="M182-580h324v108H182c-12 0-22 10-22 22V0H52v-450c0-72 58-130 130-130" id="d"/><path fill="#333" d="M509-580h128v15L388-290 637-15V0H509L292-236H162V0H54v-770h108v426h130" id="e"/><path fill="#333" d="M511-580c72 0 130 58 130 130v214H159v106c0 12 10 22 22 22h460V0H181C109 0 51-58 51-130v-320c0-72 58-130 130-130h330zM159-344h374v-106c0-12-10-22-22-22H181c-12 0-22 10-22 22v106" id="f"/><path fill="#333" d="M399-472H161v342c0 12 10 22 22 22h216V0H183C111 0 53-58 53-130v-640h108v190h238v108" id="g"/><path fill="#ef8d22" d="M514-580c72 0 130 58 130 130v320C644-58 586 0 514 0H162v230H54v-810h460zm22 450v-320c0-12-10-22-22-22H184c-12 0-22 10-22 22v320c0 12 10 22 22 22h330c12 0 22-10 22-22" id="h"/><path fill="#ef8d22" d="M52-770h108v640c0 12 10 22 22 22h108V0H182C110 0 52-58 52-130v-640" id="i"/><path fill="#ef8d22" d="M512-580c72 0 130 58 130 130V0H182C110 0 52-58 52-130v-214h482v-106c0-12-10-22-22-22H52v-108h460zm22 472v-128H160v106c0 12 10 22 22 22h352" id="j"/><path fill="#ef8d22" d="M181-108h460V0H181C109 0 51-58 51-130v-320c0-72 58-130 130-130h458v108H181c-12 0-22 10-22 22v320c0 12 10 22 22 22" id="k"/><path fill="#ef8d22" d="M511-580c72 0 130 58 130 130v214H159v106c0 12 10 22 22 22h460V0H181C109 0 51-58 51-130v-320c0-72 58-130 130-130h330zM159-344h374v-106c0-12-10-22-22-22H181c-12 0-22 10-22 22v106" id="l"/><g id="a"><use transform="matrix(0.1155555555555553,0,0,0.1155555555555553,0,0)" xlink:href="#b"/><path fill="#ef8d22" d="M-5.78 5.78h118.8v5.78H-5.8z"/><use transform="matrix(0.08888888888888873,0,0,0.08888888888888873,107.23555555555532,0)" xlink:href="#c"/><use transform="matrix(0.08888888888888873,0,0,0.08888888888888873,167.14666666666633,0)" xlink:href="#d"/><use transform="matrix(0.08888888888888873,0,0,0.08888888888888873,212.65777777777737,0)" xlink:href="#e"/><use transform="matrix(0.08888888888888873,0,0,0.08888888888888873,267.85777777777724,0)" xlink:href="#f"/><use transform="matrix(0.08888888888888873,0,0,0.08888888888888873,329.36888888888825,0)" xlink:href="#g"/><use transform="matrix(0.08888888888888873,0,0,0.08888888888888873,365.81333333333265,0)" xlink:href="#h"/><use transform="matrix(0.08888888888888873,0,0,0.08888888888888873,425.2799999999993,0)" xlink:href="#i"/><use transform="matrix(0.08888888888888873,0,0,0.08888888888888873,452.12444444444355,0)" xlink:href="#j"/><use transform="matrix(0.08888888888888873,0,0,0.08888888888888873,512.4799999999991,0)" xlink:href="#k"/><use transform="matrix(0.08888888888888873,0,0,0.08888888888888873,572.9244444444435,0)" xlink:href="#l"/></g></defs></g></svg>